<svg width="37" height="37" viewBox="0 0 37 37" fill="none" xmlns="http://www.w3.org/2000/svg">
<path d="M30.2 0H21.9C20.3087 0 18.7826 0.632141 17.6574 1.75736C16.5321 2.88258 15.9 4.4087 15.9 6V13.7C15.9 14.2844 15.6685 14.845 15.2562 15.2592C14.844 15.6734 14.2844 15.9074 13.7 15.91H6C4.4087 15.91 2.88258 16.5421 1.75736 17.6674C0.632141 18.7926 0 20.3187 0 21.91V30.21C0 31.8013 0.632141 33.3274 1.75736 34.4526C2.88258 35.5779 4.4087 36.21 6 36.21H14.3C15.8913 36.21 17.4174 35.5779 18.5426 34.4526C19.6679 33.3274 20.3 31.8013 20.3 30.21V22.51C20.3 21.9265 20.5318 21.3669 20.9444 20.9544C21.3569 20.5418 21.9165 20.31 22.5 20.31H30.2C31.7913 20.31 33.3174 19.6779 34.4426 18.5526C35.5679 17.4274 36.2 15.9013 36.2 14.31V6C36.2 4.4087 35.5679 2.88258 34.4426 1.75736C33.3174 0.632141 31.7913 0 30.2 0ZM15.9 29.6C15.9 30.1844 15.6685 30.745 15.2562 31.1592C14.844 31.5734 14.2844 31.8074 13.7 31.81H6.6C6.31025 31.81 6.02335 31.7528 5.75578 31.6416C5.48821 31.5304 5.24524 31.3675 5.04082 31.1621C4.8364 30.9568 4.67456 30.713 4.56459 30.445C4.45462 30.1769 4.39868 29.8897 4.4 29.6V22.51C4.39868 22.2207 4.45468 21.934 4.56477 21.6665C4.67486 21.399 4.83686 21.156 5.04141 20.9514C5.24597 20.7469 5.48902 20.5849 5.75653 20.4748C6.02405 20.3647 6.31072 20.3087 6.6 20.31H13.7C14.2835 20.31 14.8431 20.5418 15.2556 20.9544C15.6682 21.3669 15.9 21.9265 15.9 22.51V29.6ZM31.8 13.7C31.8013 13.9897 31.7454 14.2769 31.6354 14.545C31.5254 14.813 31.3636 15.0568 31.1592 15.2621C30.9548 15.4675 30.7118 15.6304 30.4442 15.7416C30.1766 15.8528 29.8898 15.91 29.6 15.91H22.5C21.9156 15.9074 21.356 15.6734 20.9438 15.2592C20.5315 14.845 20.3 14.2844 20.3 13.7V6.61C20.3 6.0256 20.5315 5.46499 20.9438 5.05082C21.356 4.63665 21.9156 4.40264 22.5 4.4H29.6C29.8898 4.4 30.1766 4.45723 30.4442 4.56842C30.7118 4.6796 30.9548 4.84255 31.1592 5.0479C31.3636 5.25325 31.5254 5.49695 31.6354 5.76503C31.7454 6.0331 31.8013 6.32025 31.8 6.61V13.7Z" fill="#C71D1D"/>
</svg>
